<?xml version="1.0" encoding="UTF-8"?>
<svg width="1024px" height="1024px" viewBox="0 0 1024 1024" version="1.1" xmlns="http://www.w3.org/2000/svg" xmlns:xlink="http://www.w3.org/1999/xlink">
    <title>icicon new</title>
    <defs>
        <filter x="-7.9%" y="-9.0%" width="115.8%" height="118.0%" filterUnits="objectBoundingBox" id="filter-1">
            <feOffset dx="0" dy="30" in="SourceAlpha" result="shadowOffsetOuter1"></feOffset>
            <feGaussianBlur stdDeviation="2" in="shadowOffsetOuter1" result="shadowBlurOuter1"></feGaussianBlur>
            <feColorMatrix values="0 0 0 0 0   0 0 0 0 0   0 0 0 0 0  0 0 0 0.5 0" type="matrix" in="shadowBlurOuter1" result="shadowMatrixOuter1"></feColorMatrix>
            <feMerge>
                <feMergeNode in="shadowMatrixOuter1"></feMergeNode>
                <feMergeNode in="SourceGraphic"></feMergeNode>
            </feMerge>
        </filter>
    </defs>
    <g id="页面-1" stroke="none" stroke-width="1" fill="none" fill-rule="evenodd">
        <g id="icon-new" transform="translate(-0.000000, 0.000000)">
            <rect id="矩形" fill="#FFFFFF" x="5.68434189e-14" y="0" width="1024" height="1024"></rect>
            <g id="svg" filter="url(#filter-1)" transform="translate(93.711803, 144.755701)" fill="#74AA9C" fill-rule="nonzero">
                <path d="M380.300144,9.24618191 C301.926681,9.24618191 232.300216,59.3865419 208.035986,133.432323 L199.288197,184.279719 L199.288197,352.812643 C199.288197,361.241258 203.6423,368.724608 210.925528,373.057074 L347.288125,451.244299 L347.288125,219.648395 L347.327708,219.648395 L347.327708,208.659686 L485.352781,129.336173 C498.698107,121.648016 513.234875,116.395098 528.288197,113.649496 L515.000266,68.7998087 C480.721598,30.6741087 431.678563,9.01177907 380.300144,9.24618191 Z M380.300144,55.5267086 L380.062648,55.7630249 C411.609709,55.7630249 441.930497,66.5941897 466.194726,86.6416911 C465.205158,87.1143238 463.265602,88.3352914 461.840623,89.0442404 L319.144785,170.809688 C311.861558,174.905838 307.507454,182.625504 307.507454,191.05412 L307.507454,382.98236 L246.114579,347.771228 L246.114579,189.124203 C246.075016,115.43329 306.122454,55.6448668 380.300144,55.5267086 Z" id="a"></path>
                <g id="a-link" transform="translate(508.483542, 252.891781) rotate(60.000000) translate(-508.483542, -252.891781) translate(344.117606, 31.798371)">
                    <path d="M180.864426,0.00188357803 C102.554836,0.00188357803 32.9851151,50.1634364 8.74066001,124.240515 L2.84217094e-14,175.109402 L2.84217094e-14,343.71356 C2.84217094e-14,352.145738 4.35055476,359.632251 11.6278463,363.966548 L147.879311,442.18682 L147.879311,210.493027 L147.918862,210.493027 L147.918862,199.499674 L285.831447,120.142634 C299.165898,112.451226 313.690818,107.196088 328.731872,104.449326 L315.45477,59.580682 C281.204039,21.4388673 232.200972,-0.232618333 180.864426,0.00188357803 Z M180.864426,46.3019717 L180.627123,46.5383879 C212.148475,46.5383879 242.444551,57.3741307 266.689007,77.4301056 C265.700244,77.902938 263.76227,79.1244217 262.338452,79.8336704 L119.758907,161.633678 C112.481616,165.731559 108.131061,173.454488 108.131061,181.886666 L108.131061,373.896029 L46.7882193,338.670014 L46.7882193,179.955934 C46.7486884,106.233874 106.747189,46.4201798 180.864426,46.3019717 Z" id="a"></path>
                </g>
                <g id="a-link" transform="translate(562.831859, 387.963185) rotate(120.000000) translate(-562.831859, -387.963185) translate(398.465923, 166.869774)">
                    <path d="M180.864426,0.00188357803 C102.554836,0.00188357803 32.9851151,50.1634364 8.74066001,124.240515 L1.13686838e-13,175.109402 L1.13686838e-13,343.71356 C1.13686838e-13,352.145738 4.35055476,359.632251 11.6278463,363.966548 L147.879311,442.18682 L147.879311,210.493027 L147.918862,210.493027 L147.918862,199.499674 L285.831447,120.142634 C299.165898,112.451226 313.690818,107.196088 328.731872,104.449326 L315.45477,59.580682 C281.204039,21.4388673 232.200972,-0.232618333 180.864426,0.00188357803 Z M180.864426,46.3019717 L180.627123,46.5383879 C212.148475,46.5383879 242.444551,57.3741307 266.689007,77.4301056 C265.700244,77.902938 263.76227,79.1244217 262.338452,79.8336704 L119.758907,161.633678 C112.481616,165.731559 108.131061,173.454488 108.131061,181.886666 L108.131061,373.896029 L46.7882193,338.670014 L46.7882193,179.955934 C46.7486884,106.233874 106.747189,46.4201798 180.864426,46.3019717 Z" id="a"></path>
                </g>
                <g id="a-link" transform="translate(472.788197, 502.244299) rotate(180.000000) translate(-472.788197, -502.244299) translate(308.288197, 281.244299)">
                    <path d="M181.011947,0.00188278224 C102.638484,0.00188278224 33.0120192,50.1422428 8.74778926,124.188024 L0,175.035419 L0,343.568344 C0,351.996959 4.35410325,359.480309 11.6373305,363.812775 L147.999928,442 L147.999928,210.404096 L148.039511,210.404096 L148.039511,199.415387 L286.064584,120.091874 C299.40991,112.403717 313.946678,107.150799 329,104.405197 L315.712069,59.5555096 C281.433401,21.4298095 232.390365,-0.232520054 181.011947,0.00188278224 Z M181.011947,46.2824095 L180.77445,46.5187258 C212.321512,46.5187258 242.642299,57.3498906 266.906529,77.397392 C265.91696,77.8700246 263.977405,79.0909923 262.552426,79.7999413 L119.856588,161.565389 C112.57336,165.661539 108.219257,173.381205 108.219257,181.809821 L108.219257,373.738061 L46.8263818,338.526929 L46.8263818,179.879904 C46.7868186,106.188991 106.834257,46.4005677 181.011947,46.2824095 Z" id="a"></path>
                </g>
                <g id="a-link" transform="translate(328.003794, 481.745460) rotate(-120.000000) translate(-328.003794, -481.745460) translate(163.637858, 260.652049)">
                    <path d="M180.864426,0.00188357803 C102.554836,0.00188357803 32.9851151,50.1634364 8.74066001,124.240515 L-1.13686838e-13,175.109402 L-1.13686838e-13,343.71356 C-1.13686838e-13,352.145738 4.35055476,359.632251 11.6278463,363.966548 L147.879311,442.18682 L147.879311,210.493027 L147.918862,210.493027 L147.918862,199.499674 L285.831447,120.142634 C299.165898,112.451226 313.690818,107.196088 328.731872,104.449326 L315.45477,59.580682 C281.204039,21.4388673 232.200972,-0.232618333 180.864426,0.00188357803 Z M180.864426,46.3019717 L180.627123,46.5383879 C212.148475,46.5383879 242.444551,57.3741307 266.689007,77.4301056 C265.700244,77.902938 263.76227,79.1244217 262.338452,79.8336704 L119.758907,161.633678 C112.481616,165.731559 108.131061,173.454488 108.131061,181.886666 L108.131061,373.896029 L46.7882193,338.670014 L46.7882193,179.955934 C46.7486884,106.233874 106.747189,46.4201798 180.864426,46.3019717 Z" id="a"></path>
                </g>
                <g id="a-link" transform="translate(273.655478, 346.674056) rotate(-60.000000) translate(-273.655478, -346.674056) translate(109.289542, 125.580646)">
                    <path d="M180.864426,0.00188357803 C102.554836,0.00188357803 32.9851151,50.1634364 8.74066001,124.240515 L0,175.109402 L0,343.71356 C0,352.145738 4.35055476,359.632251 11.6278463,363.966548 L147.879311,442.18682 L147.879311,210.493027 L147.918862,210.493027 L147.918862,199.499674 L285.831447,120.142634 C299.165898,112.451226 313.690818,107.196088 328.731872,104.449326 L315.45477,59.580682 C281.204039,21.4388673 232.200972,-0.232618333 180.864426,0.00188357803 Z M180.864426,46.3019717 L180.627123,46.5383879 C212.148475,46.5383879 242.444551,57.3741307 266.689007,77.4301056 C265.700244,77.902938 263.76227,79.1244217 262.338452,79.8336704 L119.758907,161.633678 C112.481616,165.731559 108.131061,173.454488 108.131061,181.886666 L108.131061,373.896029 L46.7882193,338.670014 L46.7882193,179.955934 C46.7486884,106.233874 106.747189,46.4201798 180.864426,46.3019717 Z" id="a"></path>
                </g>
            </g>
        </g>
    </g>
</svg>