<?xml version="1.0" encoding="UTF-8"?>
<svg width="77px" height="76px" viewBox="0 0 77 76" version="1.1" xmlns="http://www.w3.org/2000/svg" xmlns:xlink="http://www.w3.org/1999/xlink">
    <title>账户密码</title>
    <g id="页面-1" stroke="none" stroke-width="1" fill="none" fill-rule="evenodd">
        <g id="拍照修改" transform="translate(-628.000000, -313.000000)" fill-rule="nonzero">
            <g id="账户密码" transform="translate(628.633591, 313.000000)">
                <circle id="椭圆形" fill="#EBF0FF" cx="38" cy="38" r="38"></circle>
                <g id="编组-4" transform="translate(24.692185, 22.000000)">
                    <path d="M25.3397129,12.8357257 L1.27591707,12.8357257 C0.561403509,12.8357257 0,13.3971292 0,14.1116427 L0,30.7240829 C0,31.4385965 0.561403509,32 1.27591707,32 L25.3397129,32 C26.0542265,32 26.61563,31.4385965 26.61563,30.7240829 L26.61563,14.1116427 C26.61563,13.3971292 26.0287081,12.8357257 25.3397129,12.8357257 Z" id="形状" fill="#3875FF"></path>
                    <path d="M15.2344498,22.5837321 L15.2344498,24.9824561 C15.2344498,26.0542265 14.3668262,26.9218501 13.2950558,26.9218501 C12.2232855,26.9218501 11.3556619,26.0542265 11.3556619,24.9824561 L11.3556619,22.5837321 C10.8708134,22.0988836 10.5645933,21.4098884 10.5645933,20.6443381 C10.5645933,19.1132376 11.7894737,17.8883573 13.3205742,17.8883573 C14.8516746,17.8883573 16.076555,19.1132376 16.076555,20.6443381 C16.0510367,21.4098884 15.7448166,22.0988836 15.2344498,22.5837321 Z" id="路径" fill="#FFFFFF"></path>
                    <path d="M13.6267943,0 C18.3221691,0 22.1499203,3.8277512 22.1499203,8.523126 L22.1499203,9.90111643 L22.1226683,9.901 L22.1244019,9.92663477 C22.1244019,10.452788 21.7263059,10.885961 21.2148884,10.9413789 L21.1036683,10.9473684 C20.5399326,10.9473684 20.0829346,10.4903704 20.0829346,9.92663477 C20.0829346,9.84891588 20.0916205,9.77322569 20.1080746,9.70048201 L20.108453,8.523126 C20.108453,4.95055821 17.199362,2.0414673 13.6267943,2.0414673 C10.0542265,2.0414673 7.14513557,4.95055821 7.14513557,8.523126 L7.14513557,14.6475279 L5.10366826,14.6475279 L5.10366826,8.523126 C5.10366826,3.8277512 8.93141946,0 13.6267943,0 Z" id="形状结合" fill="#94C2FF"></path>
                </g>
            </g>
        </g>
    </g>
</svg>