<?xml version="1.0" encoding="UTF-8"?>
<svg width="3055px" height="728px" viewBox="0 0 3055 728" version="1.1" xmlns="http://www.w3.org/2000/svg" xmlns:xlink="http://www.w3.org/1999/xlink">
    <title>ictitle</title>
    <defs>
        <filter x="-8.1%" y="-9.2%" width="116.2%" height="118.5%" filterUnits="objectBoundingBox" id="filter-1">
            <feOffset dx="0" dy="30" in="SourceAlpha" result="shadowOffsetOuter1"></feOffset>
            <feGaussianBlur stdDeviation="2" in="shadowOffsetOuter1" result="shadowBlurOuter1"></feGaussianBlur>
            <feColorMatrix values="0 0 0 0 0   0 0 0 0 0   0 0 0 0 0  0 0 0 0.5 0" type="matrix" in="shadowBlurOuter1" result="shadowMatrixOuter1"></feColorMatrix>
            <feMerge>
                <feMergeNode in="shadowMatrixOuter1"></feMergeNode>
                <feMergeNode in="SourceGraphic"></feMergeNode>
            </feMerge>
        </filter>
        <text id="text-2" font-family="HarmonyOS_Sans_Bold, HarmonyOS Sans" font-size="500" font-weight="bold">
            <tspan x="969" y="741">iChatGPT</tspan>
        </text>
        <filter x="-0.9%" y="-2.4%" width="101.9%" height="109.7%" filterUnits="objectBoundingBox" id="filter-3">
            <feOffset dx="0" dy="30" in="SourceAlpha" result="shadowOffsetOuter1"></feOffset>
            <feGaussianBlur stdDeviation="2" in="shadowOffsetOuter1" result="shadowBlurOuter1"></feGaussianBlur>
            <feColorMatrix values="0 0 0 0 0   0 0 0 0 0   0 0 0 0 0  0 0 0 0.5 0" type="matrix" in="shadowBlurOuter1"></feColorMatrix>
        </filter>
    </defs>
    <g id="页面-1" stroke="none" stroke-width="1" fill="none" fill-rule="evenodd">
        <g id="title" transform="translate(-165.000000, -165.000000)">
            <rect id="矩形" x="0" y="0" width="3439" height="1024"></rect>
            <g id="svg" filter="url(#filter-1)" transform="translate(105.482471, 154.925268)" fill="#74AA9C" fill-rule="nonzero">
                <path d="M370.577781,10.0765632 C294.348273,10.0765632 226.626484,58.8556465 203.026017,130.891135 L194.517529,180.358058 L194.517529,344.315428 C194.517529,352.515212 198.752523,359.795395 205.836513,364.010237 L338.468826,440.074732 L338.468826,214.766499 L338.507326,214.766499 L338.507326,204.076126 L472.756637,126.906193 C485.736894,119.426764 499.875999,114.316459 514.517529,111.645398 L501.593097,68.0133495 C468.252144,30.9227363 420.550711,9.84852428 370.577781,10.0765632 Z M370.577781,55.1006051 L370.346781,55.3305056 C401.030853,55.3305056 430.522197,65.8676116 454.122664,85.3708369 C453.160165,85.8306379 451.273668,87.0184571 449.88767,87.7081586 L311.095365,167.25373 C304.011375,171.238672 299.776381,178.748755 299.776381,186.948539 L299.776381,373.666058 L240.062946,339.410884 L240.062946,185.071018 C240.024465,113.380764 298.429268,55.2155553 370.577781,55.1006051 Z" id="a"></path>
                <g id="a-link" transform="translate(494.272367, 245.828558) rotate(60.000000) translate(-494.272367, -245.828558) translate(334.518879, 30.872600)">
                    <path d="M175.788996,0.00183129077 C99.6769352,0.00183129077 32.0594845,48.7709223 8.49537899,120.791655 L2.5243549e-29,170.248445 L2.5243549e-29,334.172228 C2.5243549e-29,342.370333 4.22846918,349.649024 11.3015449,353.863003 L143.729512,429.911916 L143.729512,204.649837 L143.767952,204.649837 L143.767952,193.961654 L277.810425,116.807529 C290.770683,109.329632 304.888004,104.220374 319.506976,101.54986 L306.602456,57.9267494 C273.312872,20.8437341 225.684932,-0.226160954 175.788996,0.00183129077 Z M175.788996,45.0166501 L175.558352,45.2465035 C206.195149,45.2465035 235.641055,55.781451 259.205161,75.2806812 C258.244145,75.740388 256.360554,76.9279639 254.976692,77.6175241 L116.398224,157.146801 C109.325149,161.130926 105.09668,168.639471 105.09668,176.837575 L105.09668,363.516846 L45.475245,329.268689 L45.475245,174.960439 C45.4368234,103.28487 103.751642,45.1315768 175.788996,45.0166501 Z" id="a"></path>
                </g>
                <g id="a-link" transform="translate(547.095557, 377.150440) rotate(120.000000) translate(-547.095557, -377.150440) translate(387.342069, 162.194482)">
                    <path d="M175.788996,0.00183129077 C99.6769352,0.00183129077 32.0594845,48.7709223 8.49537899,120.791655 L-1.13686838e-13,170.248445 L-1.13686838e-13,334.172228 C-1.13686838e-13,342.370333 4.22846918,349.649024 11.3015449,353.863003 L143.729512,429.911916 L143.729512,204.649837 L143.767952,204.649837 L143.767952,193.961654 L277.810425,116.807529 C290.770683,109.329632 304.888004,104.220374 319.506976,101.54986 L306.602456,57.9267494 C273.312872,20.8437341 225.684932,-0.226160954 175.788996,0.00183129077 Z M175.788996,45.0166501 L175.558352,45.2465035 C206.195149,45.2465035 235.641055,55.781451 259.205161,75.2806812 C258.244145,75.740388 256.360554,76.9279639 254.976692,77.6175241 L116.398224,157.146801 C109.325149,161.130926 105.09668,168.639471 105.09668,176.837575 L105.09668,363.516846 L45.475245,329.268689 L45.475245,174.960439 C45.4368234,103.28487 103.751642,45.1315768 175.788996,45.0166501 Z" id="a"></path>
                </g>
                <g id="a-link" transform="translate(459.517529, 489.074732) rotate(180.000000) translate(-459.517529, -489.074732) translate(299.517529, 274.074732)">
                    <path d="M176.060252,0.00183166598 C99.8307446,0.00183166598 32.1089548,48.7809149 8.50848803,120.816403 L0,170.283327 L0,334.240696 C0,342.440481 4.23499404,349.720663 11.3189841,353.935505 L143.951298,430 L143.951298,204.691767 L143.989798,204.691767 L143.989798,194.001394 L278.239109,116.831461 C291.219365,109.352032 305.358471,104.241727 320,101.570667 L307.075568,57.938618 C273.734615,20.8480048 226.033182,-0.226207292 176.060252,0.00183166598 Z M176.060252,45.0258735 L175.829253,45.255774 C206.513325,45.255774 236.004668,55.79288 259.605135,75.2961053 C258.642636,75.7559063 256.756139,76.9437256 255.370141,77.633427 L116.577836,157.178998 C109.493846,161.16394 105.258852,168.674023 105.258852,176.873807 L105.258852,363.591326 L45.5454169,329.336152 L45.5454169,174.996287 C45.506936,103.306032 103.911739,45.1408237 176.060252,45.0258735 Z" id="a"></path>
                </g>
                <g id="a-link" transform="translate(318.857254, 468.329362) rotate(-120.000000) translate(-318.857254, -468.329362) translate(159.103767, 253.373404)">
                    <path d="M175.788996,0.00183129077 C99.6769352,0.00183129077 32.0594845,48.7709223 8.49537899,120.791655 L0,170.248445 L0,334.172228 C0,342.370333 4.22846918,349.649024 11.3015449,353.863003 L143.729512,429.911916 L143.729512,204.649837 L143.767952,204.649837 L143.767952,193.961654 L277.810425,116.807529 C290.770683,109.329632 304.888004,104.220374 319.506976,101.54986 L306.602456,57.9267494 C273.312872,20.8437341 225.684932,-0.226160954 175.788996,0.00183129077 Z M175.788996,45.0166501 L175.558352,45.2465035 C206.195149,45.2465035 235.641055,55.781451 259.205161,75.2806812 C258.244145,75.740388 256.360554,76.9279639 254.976692,77.6175241 L116.398224,157.146801 C109.325149,161.130926 105.09668,168.639471 105.09668,176.837575 L105.09668,363.516846 L45.475245,329.268689 L45.475245,174.960439 C45.4368234,103.28487 103.751642,45.1315768 175.788996,45.0166501 Z" id="a"></path>
                </g>
                <g id="a-link" transform="translate(266.034064, 337.007480) rotate(-60.000000) translate(-266.034064, -337.007480) translate(106.280576, 122.051522)">
                    <path d="M175.788996,0.00183129077 C99.6769352,0.00183129077 32.0594845,48.7709223 8.49537899,120.791655 L0,170.248445 L0,334.172228 C0,342.370333 4.22846918,349.649024 11.3015449,353.863003 L143.729512,429.911916 L143.729512,204.649837 L143.767952,204.649837 L143.767952,193.961654 L277.810425,116.807529 C290.770683,109.329632 304.888004,104.220374 319.506976,101.54986 L306.602456,57.9267494 C273.312872,20.8437341 225.684932,-0.226160954 175.788996,0.00183129077 Z M175.788996,45.0166501 L175.558352,45.2465035 C206.195149,45.2465035 235.641055,55.781451 259.205161,75.2806812 C258.244145,75.740388 256.360554,76.9279639 254.976692,77.6175241 L116.398224,157.146801 C109.325149,161.130926 105.09668,168.639471 105.09668,176.837575 L105.09668,363.516846 L45.475245,329.268689 L45.475245,174.960439 C45.4368234,103.28487 103.751642,45.1315768 175.788996,45.0166501 Z" id="a"></path>
                </g>
            </g>
            <g id="iChatGPT" fill-rule="nonzero" fill="#74AA9C">
                <use fill-opacity="1" filter="url(#filter-3)" xlink:href="#text-2"></use>
                <use xlink:href="#text-2"></use>
                <use fill-opacity="1" xlink:href="#text-2"></use>
            </g>
        </g>
    </g>
</svg>